<svg xmlns="http://www.w3.org/2000/svg" width="256" height="256"><path fill-opacity=".243" d="M0 127.511v92.497l128.25-.254 128.25-.254.255-92.5.255-92.5-128.505.258L0 35.015v92.496m.48-.011c0 51.15.121 71.928.27 46.174.148-25.754.148-67.604 0-93C.601 55.278.48 76.35.48 127.5m141.214-64.861c-.799.799.104 2.361 1.365 2.361.518 0 .941-.675.941-1.5 0-1.546-1.18-1.987-2.306-.861" fill="#1976D2" fill-rule="evenodd"/><path fill-opacity=".171" d="M117.419 54.897c-8.427 3.828-16.996 16.593-19.6 29.198C97.149 87.343 96.303 90 95.94 90s-4.436-1.736-9.05-3.857c-11.767-5.409-17.374-6.6-24.308-5.16-3.051.633-5.823 1.598-6.16 2.143-.337.546-1.583.916-2.768.822-4.365-.344-5.644.107-7.246 2.552-1.53 2.335-1.517 2.681.199 5.25 1.011 1.513 1.721 3.139 1.577 3.614-.143.475.424 3.214 1.259 6.087 4.526 15.571 33.714 32.669 51.658 30.262 3.149-.422 3.935-.175 4.432 1.392.333 1.048 1.739 3.253 3.125 4.9l2.52 2.995h-2.393c-3.537 0-11.253 5.293-14.87 10.202-6.015 8.162-9.35 16.619-9.384 23.798-.017 3.575.344 7.692.802 9.148.791 2.514.623 2.684-3.32 3.35-2.284.386-4.396 1.337-4.694 2.114-.603 1.57 5.845 7.988 9.044 9.003 1.095.348 3.149 1.711 4.564 3.03 2.909 2.711 6.853 3.95 15.63 4.908 8.277.904 16.76-1.38 36.443-9.814 2.907-1.246 2.507-1.122 7-2.161 1.925-.445 4.025-1.231 4.667-1.747.642-.516 2.217-1.043 3.5-1.17 3.097-.309 10.481-4.242 13.729-7.313 1.432-1.355 4.967-3.595 7.854-4.978 2.887-1.383 5.25-2.863 5.25-3.288 0-.424-.888-1.576-1.974-2.559-1.963-1.776-1.961-1.805.25-4.905 1.834-2.571 2.224-4.462 2.224-10.782 0-6.921-.294-8.083-3.037-11.985-3.731-5.309-8.579-8.686-13.626-9.493l-3.822-.611 2.966-3.378c5.718-6.512 7.544-19.866 3.551-25.96-1.345-2.053-1.197-2.56 1.942-6.671 1.868-2.447 6.629-7.238 10.58-10.647 6.499-5.607 7.482-6.129 10.315-5.48 4.933 1.131 8.732.52 13.262-2.135 8.517-4.991 11.016-14.482 5.451-20.71-2.546-2.85-3.545-3.266-7.835-3.266-9.078 0-17.736 8.84-17.113 17.472.273 3.783-.01 4.182-7.449 10.53-4.254 3.629-9.41 8.767-11.459 11.417-3.255 4.21-4.295 4.887-8.226 5.355-3.684.438-5.165 1.284-8.169 4.667-3.507 3.951-6.831 11.365-6.831 15.237 0 1.318-.761 1.826-2.75 1.836-1.512.007-3.754.283-4.982.612-1.73.463-2.438.057-3.146-1.805-.503-1.322-1.657-3.02-2.565-3.774-2.053-1.703-.445-3.009 3.733-3.032 7.905-.043 16.988-8.926 21.748-21.27 5.483-14.218 5.04-26.17-1.235-33.317-5.477-6.238-16.702-10.158-21.592-7.541-1.375.736-2.302.775-2.709.116-1.028-1.664-10.716-1.089-15.083.894m6.61 1.064c-.809.512-1.211 1.19-.893 1.508.788.788 3.864-.467 3.864-1.576 0-1.14-1.101-1.115-2.971.068M114 60c-.589 1.1-.674 2-.19 2 .484 0 1.695-.9 2.69-2 1.598-1.765 1.62-2 .19-2-.891 0-2.101.9-2.69 2m10.589-.144c-.291.471-.995 2.158-1.565 3.75-.984 2.749-.956 2.794.543.894 2.593-3.284 3.611-5.5 2.527-5.5-.537 0-1.214.385-1.505.856m16.661.875c-1.696.591-1.592 5.924.128 6.584 1.846.708 3.622-1.208 3.622-3.908 0-2.282-1.602-3.426-3.75-2.676m-26.528 2.023c-2.992 3.307-8.774 16.886-9.384 22.041-.401 3.382-.994 4.932-1.724 4.508-.613-.356-.385.218.506 1.275.89 1.057 1.847 2.597 2.126 3.422.585 1.729 1.309-.904 2.25-8.176.332-2.571 2.607-8.789 5.054-13.818 2.448-5.028 4.45-9.562 4.45-10.074 0-1.477-1.549-1.088-3.278.822m17.945-1.087c-.367.366-.651 2.279-.632 4.25l.036 3.583L133.5 67c2.242-3.923 1.636-7.803-.833-5.333M200 66c0 .55.45 1 1 1s1-.45 1-1-.45-1-1-1-1 .45-1 1m-67.963 8.218a900.8 900.8 0 01-3.135 8.165c-2.288 5.875-2.385 7.617-.422 7.617 2.419 0 5.714-7.702 5.671-13.256-.047-6.155-.534-6.735-2.114-2.526m-15.425 3.56c-3.42 6.749-5.212 14.022-3.802 15.432.773.773 1.261.257 1.719-1.815.352-1.592 1.723-6.237 3.046-10.321 1.323-4.085 2.216-7.617 1.983-7.85-.233-.232-1.558 1.817-2.946 4.554m26.903-2.795C141.621 77.076 140.133 86 141.679 86c2.497 0 4.56-2.94 5.038-7.18.585-5.193-.643-6.665-3.202-3.837M59 86c0 .55.45 1 1 1s1-.45 1-1-.45-1-1-1-1 .45-1 1m7.245 1.25c.633 1.923 4.755 2.2 4.755.32 0-1.021-.903-1.57-2.583-1.57-1.62 0-2.43.466-2.172 1.25M59.6 90.6c-.366.954-.216 2.184.334 2.734.667.667 1.222.422 1.666-.734.366-.954.216-2.184-.334-2.734-.667-.667-1.222-.422-1.666.734m9.4 2.278c0 1.55 2.926 3.364 4.47 2.772 2.259-.867.675-3.65-2.077-3.65-1.316 0-2.393.395-2.393.878m92.75 15.699c-.412.416-.75 1.671-.75 2.79 0 1.471.302 1.731 1.094.939.601-.601.939-1.857.75-2.789-.189-.933-.682-1.356-1.094-.94m.979 10.027c-.401.401-.729 1.419-.729 2.263 0 1.125.296 1.237 1.113.42.611-.611.94-1.63.729-2.262-.211-.633-.712-.822-1.113-.421M123.5 124c-.34.55-.141 1 .441 1s1.059-.45 1.059-1-.198-1-.441-1-.719.45-1.059 1m17 15c-.34.55-.141 1 .441 1s1.059-.45 1.059-1-.198-1-.441-1-.719.45-1.059 1m26.595 5.941c-.719.445-.901 1.061-.404 1.368.497.307 1.494.195 2.214-.25.719-.445.901-1.061.404-1.368-.497-.307-1.494-.195-2.214.25m-65.601 3.065c-.998 1.104-1.63 2.184-1.405 2.402.226.218 1.22-.685 2.208-2.006 2.182-2.918 1.697-3.157-.803-.396m69.145 1.688c-1.126 1.126-.685 2.306.861 2.306.825 0 1.5-.423 1.5-.941 0-1.261-1.562-2.164-2.361-1.365m-52.065 1.973c-.352.917-.172 2.135.4 2.707 1.313 1.313 4.578-1.672 3.585-3.278-1.015-1.642-3.259-1.32-3.985.571m3.06 8.185c-1.693 1.871-2.275 7.148-.789 7.148 1.544 0 4.155-3.626 4.155-5.77 0-2.935-1.428-3.519-3.366-1.378m-11.995 1.576c-.931 1.421-2.12 3.707-2.641 5.078-.801 2.105-.658 2.494.913 2.494 2.385 0 5.562-6.333 4.304-8.581-.75-1.34-1.136-1.189-2.576 1.009M140 165.622c0 2.917.261 3.406 1.342 2.509.738-.612 1.695-.78 2.127-.372.432.407.042-.722-.868-2.509-2.116-4.162-2.601-4.092-2.601.372m-48.921 8.961c.048 1.165.285 1.402.604.605.289-.722.253-1.585-.079-1.917-.332-.332-.568.258-.525 1.312" fill="#1976D2" fill-rule="evenodd"/><path fill-opacity=".175" d="M209.875 62.5c-.069.275-.181.966-.25 1.536-.069.571-.585 1.358-1.148 1.75-.563.393-1.811 1.951-2.773 3.464-1.881 2.955-4.704 3.706-4.704 1.25 0-.825-.675-1.5-1.5-1.5s-1.5.675-1.5 1.5-.675 1.5-1.5 1.5-1.5-.627-1.5-1.393c0-2.056-2.537-2.666-4.653-1.119-1.355.991-1.807 2.505-1.697 5.682.139 4.003-.185 4.594-4.294 7.83-2.444 1.925-7.6 6.74-11.456 10.701l-7.011 7.2 1.768 2.699c1.753 2.675 1.75 2.688-.379 1.549-2.991-1.601-5.84-1.435-9.578.557-1.76.938-3.571 1.602-4.024 1.475-.454-.127-.559.2-.234.726.325.526-.307 1.586-1.405 2.355-2.453 1.718-5.06 7.724-5.222 12.033-.119 3.163-.19 3.208-5.443 3.41-4.119.159-5.539-.18-6.282-1.5-.688-1.223-.844-.433-.552 2.795l.407 4.5-.923-4.265c-.508-2.346-1.24-4.778-1.627-5.405-.448-.725-.257-.863.524-.38.9.556.877.196-.086-1.345-.723-1.158-1.656-2.105-2.074-2.105-.417 0-.759-.45-.759-1s1.238-1.003 2.75-1.006c3.863-.007 9.487-1.692 11.796-3.533 1.771-1.412 1.654-1.412-1.246-.009-4.419 2.137-5.556 1.982-10.645-1.452-2.445-1.65-5.167-3-6.05-3s-1.605-.394-1.605-.875-1.352-1.145-3.005-1.476c-2.154-.431-3.474-1.586-4.664-4.082-.914-1.915-1.983-3.282-2.377-3.038-.395.243.2 2.297 1.321 4.563 2.877 5.815 3.365 12.757 1.215 17.287-2.115 4.459-5.403 6.898-11.99 8.896-3.916 1.188-4.404 1.539-2.25 1.621 1.513.057 2.75.675 2.75 1.372 0 .697 1.118 2.913 2.484 4.924l2.485 3.656-2.819.619c-2.53.556-12.683 9.533-10.781 9.533.432 0 2.155-1.37 3.83-3.045 3.62-3.62 4.921-3.194 1.915.627-1.163 1.478-2.122 3.415-2.131 4.303-.009.888-1.801 5.215-3.983 9.615-2.182 4.4-3.935 9.125-3.897 10.5l.069 2.5.778-2.564c.428-1.41 3.328-7.551 6.446-13.646 5.711-11.165 10.361-17.3 11.597-15.301.441.713 1.9.536 4.492-.547 4.608-1.926 9.413-1.263 14.142 1.95 5.516 3.748 7.634 7.272 8.399 13.973.385 3.374.78 4.785.877 3.135l.177-3 1.579 3c.868 1.65 2.709 4.211 4.09 5.69 1.404 1.504 2.259 3.346 1.94 4.177-.313.818.078 2.025.87 2.682.793.658 1.441 1.788 1.441 2.512 0 1.593 7.081 2.921 15.525 2.913 6.702-.006 14.748-2.224 14.127-3.893-.221-.595-.98-.945-1.686-.778-.706.167-.159-1.183 1.216-3s2.753-4.896 3.062-6.843c.504-3.175.319-3.56-1.791-3.735-1.295-.107-2.622.24-2.95.77-.341.553-1.323.611-2.299.136-8.317-4.043-9.693-5.524-6.172-6.641l2.141-.68-2.086-1.944c-1.148-1.069-2.087-2.8-2.087-3.846 0-1.046-.43-2.168-.956-2.493-1.438-.889-.225-3.123 2.326-4.286 2.763-1.259 5.311.449 9.118 6.11 2.028 3.016 2.337 4.155 1.428 5.25-.947 1.141-.654 1.399 1.587 1.399 2.545 0 2.701-.23 2.12-3.135-.971-4.853-4.306-9.487-8.139-11.305-3.436-1.631-4.948-3.336-1.932-2.178.866.332 1.289.17.958-.366-.327-.528-2.349-1.487-4.495-2.13l-3.901-1.169 2.319-3.108c1.276-1.71 2.848-4.761 3.495-6.781 1.349-4.214 1.623-15.135.428-17.043-2.56-4.084-1.572-5.852 9.193-16.449 8.153-8.025 11.03-10.29 12.297-9.678 2.948 1.422 10.618.74 13.594-1.211 7.175-4.701 10.751-14.154 6.731-17.792-1.833-1.659-3.062-2.09-3.296-1.155M47.727 85.749C45.602 88.097 45.52 90.357 47.5 92c.825.685 1.5 2.112 1.5 3.172 0 3.079 2.859 7.819 4.367 7.241 3.314-1.272 5.961-14.066 3.357-16.227-2.737-2.271-7.143-2.485-8.997-.437m113.308 22.185c-.569 1.064-1.035 3.122-1.035 4.574 0 1.973.442 2.555 1.75 2.307 1.277-.242 1.833-1.48 2.057-4.574.326-4.489-1.009-5.6-2.772-2.307m-5.852 2.283c-1.41 1.41-1.567 3.783-.25 3.783.982 0 2.541-3.859 1.842-4.559-.225-.224-.941.125-1.592.776m6.424 7.365c-.864 2.251-.751 5.418.193 5.418 1.549 0 3.2-2.425 3.2-4.7 0-2.616-2.465-3.138-3.393-.718m-39.417 7.168c.186.963 1 1.75 1.81 1.75s1.624-.787 1.81-1.75c.236-1.228-.304-1.75-1.81-1.75s-2.046.522-1.81 1.75m30.026 5.063c.706.88 2.071 2.407 3.034 3.394 2.537 2.599 2.201 6.267-.75 8.201-3.258 2.135-3.188 3.446.149 2.808 2.068-.395 2.469-.201 1.828.889-.452.767.115.575 1.26-.427 1.144-1.003 2.62-3.127 3.281-4.721 1.676-4.046-1.127-8.697-6.302-10.458-3.435-1.168-3.666-1.139-2.5.314m-28.132.503c-1.748 1.748-1.276 2.32 1.916 2.32 1.669 0 3-.533 3-1.201 0-1.642-3.578-2.457-4.916-1.119m16.555 7.378c-1.195 1.195-.645 3.306.861 3.306.825 0 1.5-.648 1.5-1.441 0-1.671-1.427-2.798-2.361-1.865m-52.592 27.419c-1.685 3.917-2.086 6.292-1.651 9.78.316 2.534.568 5.926.56 7.539-.011 2.06 1.146 4.141 3.89 7 2.148 2.237 4.181 5.249 4.518 6.693.819 3.516 5.302 4.591 20.058 4.809 11.901.177 15.007-.558 16.033-3.792 1.498-4.719-3.018-6.697-8.439-3.696-1.919 1.062-2.942 1.114-4.5.227-1.109-.631-3.366-1.218-5.016-1.305-7.961-.419-15.585-1.303-16.589-1.923C95.2 189.387 93 183.436 93 179.865c0-1.759-.293-2.905-.651-2.547-.9.899-3.278-2.418-3.317-4.627-.018-.995-.417-1.571-.888-1.28-.47.291-.019-2.006 1.003-5.105 2.382-7.219 1.775-7.877-1.1-1.193m50.032 4.47c.048 1.165.285 1.402.604.605.289-.722.253-1.585-.079-1.917-.332-.332-.568.258-.525 1.312" fill="#1976D2" fill-rule="evenodd"/></svg>